<svg width="1715" height="216" viewBox="0 0 1715 216" fill="none" xmlns="http://www.w3.org/2000/svg">
<path d="M461.435 23.5278C435.805 -6.23321 384.332 -6.1273 353.512 15.1609C346.098 20.2446 338.366 28.7175 338.366 38.885V207.707C338.366 214.062 346.945 217.663 351.711 214.803C354.465 213.109 356.583 209.084 356.583 205.589V117.153H450.103V207.39C450.844 212.685 455.08 215.757 459.635 215.651C464.612 215.651 468.319 211.732 468.319 206.013V43.3332C468.319 36.449 465.777 28.5057 461.541 23.5278H461.435ZM356.689 98.9366V39.9441C356.689 34.9662 362.09 30.8357 365.691 28.3998C386.874 13.784 415.787 16.5377 438.346 26.4934C442.795 29.4589 449.785 33.5894 449.785 39.9441L450.103 99.1484H356.689V98.9366ZM667.432 9.86529C667.432 14.7372 663.619 18.55 658.112 18.55L611.405 18.7618V208.978C611.299 214.803 601.979 216.71 598.802 215.015C594.459 212.685 593.612 208.131 593.612 203.365V18.6559L546.482 18.4441C541.61 18.4441 537.479 13.6781 537.691 9.86529C537.903 5.41702 540.974 0.545105 546.164 0.545105H659.171C664.573 0.545105 667.326 6.1584 667.326 9.75938L667.432 9.86529ZM1228.87 9.75938C1228.87 4.78155 1232.89 0.756928 1237.87 0.756928H1271.34C1276.32 0.756928 1280.34 4.78155 1280.34 9.75938C1280.34 14.7372 1276.32 18.7618 1271.34 18.7618H1237.87C1232.89 18.7618 1228.87 14.7372 1228.87 9.75938ZM1503.39 128.486L1493.54 122.555C1505.51 113.341 1516.73 103.491 1516.73 87.2864V45.7692C1516.73 21.3037 1484.64 1.18057 1458.48 1.07466L1396.84 0.756928C1391.86 0.756928 1387.2 3.93426 1387.2 9.65347V207.284C1387.2 212.473 1392.82 215.863 1396.31 215.968C1400.02 215.968 1405.21 212.262 1405.32 207.39L1405.53 133.252H1461.77C1471.09 133.252 1479.56 136.747 1488.35 139.712C1492.06 142.36 1498.62 145.538 1498.73 150.939L1499.15 206.119C1499.15 211.308 1503.6 215.651 1507.63 215.333C1512.39 214.909 1516.95 212.05 1516.84 206.542L1516.42 147.338C1516.42 139.183 1509.32 131.981 1503.5 128.486H1503.39ZM1452.45 114.4L1405.32 113.976V19.0796H1454.46C1468.86 19.0796 1482.21 24.481 1492.9 33.3776C1496.93 37.9318 1498.73 42.8037 1498.73 48.8406V84.8504C1498.73 91.5228 1496.29 96.3947 1492.27 101.161C1481.47 110.905 1466.96 114.506 1452.34 114.294L1452.45 114.4ZM1318.68 7.21751L1318.89 174.981C1318.89 183.666 1315.5 191.079 1309.04 196.904C1293.26 211.097 1272.4 216.392 1251.11 215.863C1233.21 215.439 1216.48 210.567 1203.13 199.023C1195.93 192.774 1190.85 185.254 1190.85 175.087V8.70027C1190.85 3.82835 1195.93 0.651017 1198.89 0.545105C1203.03 0.439194 1208.21 3.08697 1208.21 8.59436V172.863C1208.21 179.535 1212.45 184.937 1217.64 188.326C1230.14 196.375 1244.44 197.858 1259.16 197.752C1274.73 197.54 1289.87 193.198 1299.51 180.276C1300.99 178.37 1300.99 173.286 1300.99 170.109V10.0771C1300.99 4.67564 1304.81 1.60422 1308.09 0.862839C1311.05 0.227372 1318.57 2.66333 1318.57 7.21751H1318.68ZM859.767 26.7052C850.553 13.5722 836.572 5.62884 821.003 2.23968C795.903 -3.05588 768.577 1.07466 747.713 16.6436C740.935 21.7273 734.686 29.5648 734.686 38.779V206.436C734.58 212.262 738.711 215.121 744.006 215.651C747.925 215.968 752.797 211.732 752.797 206.225V116.942H846.316V205.377C846.316 209.826 848.54 213.427 852.247 214.803C855.107 215.863 859.873 215.968 862.097 212.897C863.58 210.885 864.745 207.178 864.745 204.318V44.9219C864.745 38.779 863.156 31.3653 859.767 26.7052ZM753.009 98.8307V42.8037C752.903 37.0845 755.55 33.3776 759.999 29.8825C781.393 13.3604 812.742 16.0081 836.043 27.1288C839.962 30.3062 846.21 34.013 846.21 39.8382V98.8307H753.114H753.009ZM1715 44.9219C1715 37.2963 1712.88 29.353 1708.22 23.8456C1694.88 7.85298 1675.28 0.862839 1654.74 0.227372C1634.3 -0.302184 1614.49 4.04017 1598.18 16.5377C1590.87 22.151 1584.84 30.2002 1584.84 39.8382V207.178C1584.84 210.885 1587.8 213.744 1590.55 214.803C1593.41 215.968 1596.17 215.439 1599.66 214.274C1601.46 210.991 1602.63 208.025 1603.16 204.318V116.942H1696.57V207.496C1697.31 212.579 1702.18 215.651 1706.53 215.545C1711.5 215.333 1714.89 210.885 1714.89 205.377V44.9219H1715ZM1603.48 99.0425L1603.26 41.7446C1603.26 37.5081 1606.02 33.1658 1609.19 30.7298C1631.75 13.4663 1661.41 15.7963 1685.98 26.917C1690.43 30.0943 1696.57 34.013 1696.68 40.1559V99.0425H1603.58H1603.48ZM1121.16 40.8973V206.436C1121.16 212.05 1116.6 215.757 1112.05 215.863C1108.02 215.863 1102.83 211.838 1102.83 206.331V40.8973C1102.83 25.5401 1075.51 12.1953 1053.9 21.5155C1046.49 24.6929 1037.49 32.2126 1037.49 40.8973L1037.06 207.284C1037.06 211.626 1033.04 215.015 1029.97 215.651C1026.79 216.286 1020.96 213.956 1019.48 210.037V44.9219C1019.48 36.3431 1015.46 29.1411 1008.25 24.7988C981.565 8.38253 954.134 26.917 954.028 39.2027L953.287 206.436C953.287 211.52 949.156 215.545 945.131 215.757C940.683 216.074 935.176 213.003 935.176 207.496V40.8973C935.176 33.9071 937.718 27.0229 941.848 22.0451C963.56 -4.85636 1003.17 -6.86868 1027.74 17.9145L1036.64 11.348C1059.52 -5.49183 1094.15 -2.94997 1112.68 19.8209C1117.34 25.5401 1121.26 32.7421 1121.26 41.0032L1121.16 40.8973Z" fill="#081F3A"/>
<path d="M89.6869 145.749C97.1007 159.518 97.4185 176.04 90.0047 190.126C83.3323 202.941 71.4702 211.52 59.0786 214.486C43.6156 218.193 28.6821 214.274 17.2437 204.742C-3.30308 187.584 -5.84495 157.188 11.8422 136.959C22.3274 124.991 37.7905 118.848 53.889 120.86C68.7165 122.767 82.2732 131.769 89.7928 145.643L89.6869 145.749ZM34.5072 1.92201C6.8644 10.0772 -7.53953 40.2619 4.00479 66.6337C11.5245 83.7914 28.3644 95.0179 46.7929 95.3357C65.4333 95.6534 82.8027 85.0623 90.852 67.6929C99.0071 50.2175 95.7239 30.3062 83.4382 16.22C71.4702 2.55748 52.4062 -3.37355 34.5072 1.92201ZM200.152 82.8382C219.64 64.9392 221.017 35.1781 203.224 15.6905C192.103 3.51068 175.899 -2.20853 159.165 0.862897C144.549 3.61659 131.204 13.5722 124.638 27.9762C116.8 45.1338 119.872 65.151 132.263 79.1313C149.95 99.1485 180.347 100.949 200.152 82.7322V82.8382ZM200.152 133.04C183.524 117.895 158.847 116.306 140.418 129.545C122.413 142.36 115.212 166.402 124.426 187.267C131.734 203.789 147.303 214.486 164.354 215.757C182.571 217.134 199.411 208.237 208.943 192.668C220.911 173.18 216.78 148.185 200.152 133.04Z" fill="#081F3A"/>
</svg>
